<svg xmlns="http://www.w3.org/2000/svg" width="400" height="269.3"><g fill-rule="evenodd"><path fill="#f4f4f6" d="m65 69 3 1 4 2c0 1 0 2 2 2 1 1 2 1 2 3l2 3c2 2 2 4 2 59 0 51 0 49-2 51l-1 3-3 3-1 1-5 2-3 1h50-1l-4-1c-4 0-6-1-7-2l-2-2c-3-2-3-2-3-10v-41c1-2 1-2 14-2 15-1 18-1 22-3l3-1a586 586 0 0 0 16-6c0-1 1-2 3-2l1-2 3-3 2-4 2-4 1-12c0-9 0-9-2-12l-1-2-2-5-3-3-5-4-2-1-3-2c-4 0-5-1-6-2s-3-2-8-2l-15-2-53-1m110 0c-1 1 0 1 3 1 4 0 5 1 6 2l2 2c1 1 4 3 4 5l1 53c0 56 0 57-2 59l-1 2-4 2-1 2-4 2-7 1a518 518 0 0 0 43-1l-9-2-2-2c-2-1-2-2-3-5l-2-4c-1-2-2-4-2-50V97l1-2c2-2 3-2 4 1l2 3 3 5 2 5 2 5 2 3 2 5 2 4 2 5 2 4 2 5 1 3 3 4c0 2 0 3 2 5l1 2 2 6c2 1 2 2 3 6l1 3c1 1 2 1 3 5l1 3 3 7 1 2 2 4 2 4 2 5c1 2 2 2 3-1l2-4 1-3c1-3 1-4 3-5l1-4c1-4 1-4 3-5l1-4c1-3 1-4 3-5l2-5 2-4 1-4c1-3 1-4 3-5l1-3 2-5 2-4 2-5 2-5 3-4 1-4 2-5c1-1 2-1 2-4l2-5 2-3 2-5 2-4 2-5 1-1 1 1c2 3 2-2 2 51 0 58 1 51-6 57l-7 2-3 1h-2 53-1l-3-1-6-2-2-2-2-1-1-2c-2-2-2-2-2-57s0-55 2-57l1-1 3-3 2-2c1-1 1-2 4-2l3-1a341 341 0 0 0-35 2c-1 0-2 1-2 4l-2 4-2 4-2 5-2 3-2 6-2 5-2 4c-1 1-2 2-2 5l-2 4-2 4-2 5-2 4-2 5c-1 1-2 2-2 5l-2 4-2 5-2 4-2 4c0 3-1 4-2 5l-1 3-3 6h-1l-2-1c-3-2-4-3-4-6l-2-4-2-4-2-5-2-3-2-5c-1-2-2-2-2-5l-2-4-3-6-1-3-2-5-2-3-2-4-2-5-2-4-2-5-2-4-2-5-2-5-2-3-2-4a516 516 0 0 0-4-6l-1-1h-33m-56 6c3 0 4 0 6 2l3 1c4 1 5 1 7 3l2 2 2 2 2 2c2 1 2 1 3 5l1 4 2 6v7l-2 6-1 4-3 5-1 2-2 2-2 2-3 2-3 1c-2 2-4 2-11 3h-6c-9 1-14 0-15-2V79c1-3 1-4 3-4h18"/><path fill="#3c335c" d="M0 135v134h400V0H0v135m125-68c8 0 10 0 12 2l4 1 5 3 4 1c2 0 5 2 5 3l2 1 2 2 2 2 3 4 1 2c1 0 2 3 3 10a103 103 0 0 0 0 8v7c-1 7-1 8-3 9l-2 3c0 2-1 3-2 3l-1 1c0 2-1 3-3 3l-1 1c0 2-1 2-4 3l-3 1c-1 2-3 3-8 3l-2 1c-1 2-4 3-11 3l-13 1h-14v2l-1 40 1 2 2 2 3 3 3 1 5 2c4 0 5 1 5 2 1 2 0 4-2 4H63c-2-2-1-6 2-7l2-1 5-2c2 0 2-1 3-12V85c-1-9-1-8-6-9l-4-1-1-1c-3-3-2-7 0-8l61 1m86 0c3 0 4 2 4 6l2 2 2 5 2 4 2 6 2 3 2 5 2 3 2 5 1 4c1 0 2 1 3 5l1 3c2 1 2 3 3 5l1 4 3 5 1 3 3 6 2 4 2 6 1 2c2 1 2 2 3 5l1 4 2 1 1 1 1-2 1-3 2-4 1-4c1-2 1-4 3-5l1-2c1-5 1-6 3-7l1-3 2-6c1-1 2-1 2-5l3-4 1-4 2-5 2-1c0-5 1-7 2-8l2-3 2-6 2-5 2-4 1-2 3-7 2-3c1-5 0-5 23-5 19 0 21 0 22 2s0 4-2 5l-3 1-8 2c-2 1-2 0-4 9v3l-1 47v45l1 2a47 47 0 0 1 1 7l1 2 2 2 5 2 3 2c6 0 7 4 4 6h-58c-4-2-2-5 4-6l3-1 5-3 2-2 1-2 1-2 1-2 1-50c-1-40-1-43-2-38 0 4-1 5-2 6-1 0-2 1-2 3 0 3-1 5-2 5l-2 4c0 3-1 4-2 5l-1 1a2899 2899 0 0 1-4 10l-3 6-2 5-2 4-1 3-3 6-1 2c-1 5-2 7-3 7l-1 2c-1 4-1 5-3 6l-2 5-2 5-2 4c0 2 0 3-2 4l-1 4c-1 3-1 4-3 5l-1 2c-1 3-6 3-7 0l-1-2c-2-1-2-2-3-5l-1-4c-2-1-2-2-3-5l-1-3c-2-1-3-3-3-5l-1-4c-2-1-2-2-3-5l-1-4c-2-1-3-5-3-7l-1-1c-1-1-2-2-2-5l-2-3-3-6-1-3-2-4-2-4-2-5-2-4-2-6-2-3c-1-2-3-5-3-8l-2 2a1204 1204 0 0 0 1 74c0 9 1 11 6 13l3 1 3 1c5 1 6 5 3 7h-24l-24-1c-2-3-1-5 3-6l3-1 7-2c1 0 2-1 2-3l2-5c2-2 2-1 2-50 0-53 0-52-2-54l-1-2-3-3a31 31 0 0 1-11-3c-3-1-4-5-1-6h40M104 77l-1 1-1 1c-2 1-2 0-2 28l1 26h10l13-1 1-1 7-2 1-1c0-1 1-2 3-2l1-2 2-3c2-2 2-3 3-10 1-10 0-19-2-20l-1-1-6-6-3-1-4-3-10-2c-4-1-9-2-12-1"/><path fill="#b4acbc" d="M64 69c-1 1 0 2 3 3l2 1 3 2 4 3 1 3 1 54-1 54-1 2-3 4-3 1-3 2c-3 0-4 2-3 3l1 1h25c26 0 26 0 27-2 1 0-2-2-6-2-4-1-10-4-11-6-1-3-2-9-2-28 0-17 0-19 2-20v-1h7a84 84 0 0 0 43-8l4-3 2-1 2-2 2-3c1 0 2-1 2-3l2-4c3-6 3-23 0-27l-1-3-3-5-2-2-4-3-7-4-4-1c-2-2-4-3-11-4l-6-1-35-1H65l-1 1m109-1c-4 1-1 3 5 4l3 1 3 1c2 1 4 3 5 6l1 2v102l-1 2-1 3-1 2-4 4-2 1-7 2c-3 1-4 2-2 3l22 1h22l1-1c2-1 1-3-3-3-3 0-10-4-11-6l-3-12-1-4V96h1l1 2 2 3c2 1 2 2 3 5l2 4 2 5 2 4 2 4 2 4 2 5 1 3 3 6 2 4 2 4 2 4 2 5 2 4 2 4 1 4 3 5 2 4 2 4 2 5 2 4 2 4 1 3c1 3 4 3 5 0l1-3 3-5 1-3 2-5 2-4 2-5 2-4 2-5 2-4 2-4c1-3 1-4 3-5l1-3 2-6 2-4c1-2 1-4 3-5l1-4 2-4 2-5 2-3 2-6 2-4 2-5 2-3 2-5 1-4h1l1 1 1 46c0 48 0 49-2 52-2 4-6 7-10 8l-6 1-1 1 1 1 28 1 28-1c1-1-1-3-6-3l-3-1a865 865 0 0 0-6-5l-2-3-1-56c0-52 0-51 2-53l1-2 3-3 3-2 3-1 6-3-21-1c-21 0-19 0-21 5l-2 3-2 6-2 4-2 5-2 5-2 3-2 6-1 3-3 5-2 5-2 4-2 5-2 4-2 4-1 5-3 5-2 4-2 6-2 3-2 5-1 3-1 1-1-1c-3-1-4-2-4-5l-3-6-2-3-2-5-2-4-2-4-2-5-1-4-3-4-1-5-2-4-2-4-2-4-3-6-1-3-3-5-1-4-2-4-2-4-3-5-1-3c-1-4-2-5-4-7h-37m-55 2 15 2c5 0 7 1 8 2s2 2 6 2l3 2 2 1 5 4 3 3 2 5 1 2c2 3 2 3 2 12l-1 12-2 4-2 4-3 3-1 2c-2 0-3 1-3 2l-3 1-6 3-3 1a586 586 0 0 1-29 5c-13 0-13 0-14 2v41c0 8 0 8 3 10l2 2c1 1 3 2 7 2l4 1h1-1a561 561 0 0 1-46-1l5-2 1-1 3-3 1-3c2-2 2 0 2-51 0-55 0-57-2-59l-2-3c0-2-1-2-2-3-2 0-2-1-2-2l-4-2-3-1 53 1m91 0 2 2 1 1a516 516 0 0 1 5 10l2 5 2 5 2 4 2 5 2 4 2 5 2 4 2 3 2 5 1 3 3 6 2 4c0 3 1 3 2 5l2 5 2 3 2 5 2 4 2 4c0 3 1 4 4 6l2 1h1l3-6 1-3c1-1 2-2 2-5l2-4 2-4 2-5 2-4c0-3 1-4 2-5l2-5 2-4 2-5 2-4 2-4c0-3 1-4 2-5l2-4 2-5 2-6 2-3 2-5 2-4 2-4c0-3 1-4 2-4l1-1a341 341 0 0 1 31 0c-3 0-3 1-4 2l-2 2-3 3-1 1c-2 2-2 2-2 57s0 55 2 57l1 2 2 1 2 2 6 2 3 1h1-53 2l3-1 7-2 5-5 1-52c0-53 0-48-2-51l-1-1-1 1-2 5-2 4-2 5-2 3-2 5c0 3-1 3-2 4l-2 5-1 4-3 4-2 5-2 5-2 4-2 5-1 3c-2 1-2 2-3 5l-1 4-2 4-2 5c-2 1-2 2-3 5l-1 4c-2 1-2 1-3 5l-1 4c-2 1-2 2-3 5l-1 3-2 4c-1 3-2 3-3 1l-2-5-2-4-2-4-1-2-3-7-1-3c-1-4-2-4-3-5l-1-3c-1-4-1-5-3-6l-2-6-1-2c-2-2-2-3-2-5l-3-4-1-3-2-5-2-4-2-5-2-4-2-5-2-3-2-5-2-5-3-5-2-3c-1-3-2-3-4-1l-1 2v39c0 46 1 48 2 50l2 4c1 3 1 4 3 5l2 2 9 2a518 518 0 0 1-36 0l4-2 1-2 4-2 1-2c2-2 2-3 2-59l-1-53c0-2-3-4-4-5l-2-2c-1-1-2-2-6-2h-3c-2-1 1-1 17-1h16l1 1m-108 5c-2 0-2 1-3 4v55c1 2 6 3 15 2h6c7-1 9-1 11-3l3-1 3-2 2-2 2-2 1-2 3-5 1-4 2-6v-7l-2-6-1-4c-1-4-1-4-3-5l-2-2-2-2-2-2c-2-2-3-2-7-3l-3-1c-2-2-3-2-6-2h-18m18 1 4 1 4 2 6 2 2 2 3 3 2 2c2 2 2 2 4 10 2 5 2 9 0 14a287 287 0 0 0-4 11l-1 2-2 2-2 2-3 2-4 2c-3 1-5 2-13 2-11 1-14 0-16-1l-1-1v-26c1-35-1-32 12-31h9"/><path fill="#7c7490" d="M64 66c-2 1-3 5 0 8l1 1 4 1c5 1 5 0 6 9v96c-1 11-1 12-3 12l-5 2-2 1c-3 1-4 5-2 7h54c2 0 3-2 2-4 0-1-1-2-5-2l-5-2-3-1-3-3-2-2-1-2 1-40v-2h1a316 316 0 0 1 13 0l13-1c7 0 10-1 11-3l2-1c5 0 7-1 8-3l3-1c3-1 4-1 4-3l1-1c2 0 3-1 3-3l1-1c1 0 2-1 2-3l2-3c2-1 2-2 3-9a114 114 0 0 1 0-9v-6c-1-7-2-10-3-10l-1-2-3-4-2-2-2-2-2-1c0-1-3-3-5-3l-4-1-5-3-4-1a391 391 0 0 0-72-2m109-1c-5 1-6 5-2 7l3 1 8 2 3 3 1 2c2 2 2 1 2 54 0 49 0 48-2 50l-2 5c0 2-1 3-2 3l-7 2-3 1c-4 1-5 3-3 6l24 1h24c3-2 2-6-3-7l-3-1-3-1c-5-2-6-4-6-13l-1-8a1204 1204 0 0 1 2-68c0 3 2 6 3 8l2 3 2 6 2 4 2 5 2 4 2 4 1 3 3 6 2 3c0 3 1 4 2 5l1 1c0 2 1 6 3 7l1 4c1 3 1 4 3 5l1 4c0 2 1 4 3 5l1 3c1 3 1 4 3 5l1 4c1 3 1 4 3 5l1 2c1 3 6 3 7 0l1-2c2-1 2-2 3-5l1-4c2-1 2-2 2-4l2-4 2-5 2-5c2-1 2-2 3-6l1-2c1 0 2-2 3-7l1-2 3-6 1-3 2-4 2-5 3-6 1-3a2899 2899 0 0 0 6-14l2-3c1 0 2-2 2-5 0-2 1-3 2-3 1-1 2-2 2-6 1-5 1-2 2 38a289 289 0 0 1-3 54l-1 2-2 2-5 3-3 1c-6 1-8 4-4 6h58c3-2 2-6-4-6l-3-2-5-2-2-2-1-2v-3l-1-4-1-2v-45a479 479 0 0 1 1-50c2-9 2-8 4-9l8-2 3-1c2-1 3-3 2-5s-3-2-22-2c-23 0-22 0-23 5l-2 3-3 7-1 2-2 4-2 5-2 6-2 3c-1 1-2 3-2 8l-2 1-2 5-1 4-3 4c0 4-1 4-2 5l-2 6-1 3c-2 1-2 2-3 7l-1 2c-2 1-2 3-3 5l-1 4-2 4-1 3-1 2-1-1-2-1-1-4c-1-3-1-4-3-5l-1-2-2-6-2-4-3-6-1-3-3-5-1-4c-1-2-1-4-3-5l-1-3c-1-4-2-5-3-5l-1-4-2-5-2-3-2-5-2-3-2-6-2-4-2-5-2-2c0-4-1-6-4-6l-37-1m-52 2a142 142 0 0 1 22 5l4 2 4 2 3 2 3 2 2 3 3 3 2 5c3 4 3 22 0 27a175 175 0 0 0-4 8l-2 2-2 2-3 2-3 2-4 2-5 2-5 2-11 2a668 668 0 0 0-19 1c-9-1-8-3-8 21 0 26 0 26 4 28 4 3 5 4 8 4 8 1 10 4 4 5H65c-3-1-2-4 2-5l3-1 2-2c3-1 3-2 5-9V84a65 65 0 0 0-2-6c0-1-1-2-3-2l-3-2-2-1c-3-1-4-3-3-5l1-1h27l30 1m88 0c2 1 3 2 4 5l2 4 2 5 2 4 2 5 2 4 2 3 3 6 1 4 1 3a709 709 0 0 1 7 13l2 5 2 5 2 4 2 4 2 4 2 5 2 4 1 3 4 7c3 1 3 1 3-1l3-6 2-6 2-3 2-6a14 14 0 0 1 3-5l1-3c0-3 1-3 2-5l2-4 2-5 2-5 2-4 2-6 2-2 2-6 2-4 2-5 2-4 2-6 2-3 2-4c1-3 1-4 3-4l36-1c6 2 5 4-2 6l-4 1-3 1-3 4-1 2-1 54 1 54 1 2 3 4 3 1 3 1c8 1 10 4 3 5h-52c-5-2-2-4 5-5l3-1 2-1c3-2 5-5 6-9a2550 2550 0 0 0-2-91l-3 5-2 6-2 3-1 4-3 5-1 3-3 6-1 2-2 6-2 5-2 4-2 3-2 6-3 5-1 4-2 4c-1 3-1 4-3 5l-1 3-2 5-2 5-2 4-2 5-2 4-2 2c-1 4-4 4-5 0l-2-2-2-4-2-5-2-4-2-4-2-5-2-4-2-4-2-5-2-5-2-3-1-3-2-5-3-5-2-4-2-5-1-3-1-2-2-3-2-5-1-4-2-4-3-5c0-2-1-3-2-3l-3-5v-1 2a2224 2224 0 0 0 1 83l3 11 3 1c3 2 4 3 7 3 4 1 6 3 3 5l-1 1h-22l-22-1c-3-2-2-4 2-5 4 0 5-1 6-2l3-1c2-1 3-1 3-3l2-3c2-3 2-3 2-56l-1-52c-2-3-4-4-6-5l-2-1-3-1c-6-2-8-3-7-4 1-2 1-2 21-2h17l1 1m-107 8-3 3-1 2v52l1 1h16c6 0 8 0 11-2l5-2 2-1 2-2 2-3 2-2c2-1 2-4 4-13v-8c-1-7-2-10-4-13l-2-2-3-2-3-2-6-3-4-1c-3-2-15-3-19-2m8 1 5 1 10 2 4 3 3 1 6 6 1 1c2 1 3 10 2 20-1 7-1 8-3 10l-2 3-1 2c-2 0-3 1-3 2l-1 1-7 2-1 1-13 1h-10l-1-26c0-28 0-27 2-28l1-1 8-1"/><path fill="#948ca4" d="M64 68c-1 2 0 4 3 5l2 1 3 2c2 0 3 1 3 2v2l2 4v101c-2 7-2 8-5 9l-2 2-3 1c-4 1-5 4-2 5h50c6-1 4-4-4-5-3 0-4-1-8-4-4-2-4-2-4-28 0-24-1-22 8-21a108 108 0 0 0 19-1l11-2 5-2 5-2 4-2 3-2 3-2 2-2 2-2 2-4 2-4c3-5 3-23 0-27l-2-5-3-3-2-3-3-2-3-2-4-2-4-2c-2-1-3-2-13-4s-10-2-39-2H65l-1 1m110-1c-3 1-4 2-3 3s2 2 7 3l3 1 2 1c2 1 4 2 6 5l1 52c0 53 0 53-2 56l-2 3c0 2-1 2-3 3l-3 1c-1 1-2 2-6 2-4 1-5 3-2 5l22 1h22l1-1c3-2 1-4-3-5-3 0-4-1-7-3l-3-1-3-11-1-4V97v1l3 5c1 0 2 1 2 3l3 5 2 4 1 4 2 5 2 3 1 2 1 3 2 5 2 4 3 5 2 5 1 3 2 3 2 5 2 5 2 4 2 4 2 5 2 4 2 4 2 5 2 4 2 2c1 4 4 4 5 0l2-2 2-4 2-5 2-4 2-5 2-5 1-3c2-1 2-2 3-5l2-4 1-4 3-5 2-6 2-3 2-4 2-5 2-6 1-2 3-6 1-3 3-5 1-4 2-3 2-6 3-5c1-4 1-4 2 0v91c-1 4-3 7-6 9l-2 1-3 1c-7 1-10 3-5 5h52c7-1 5-4-3-5l-3-1-3-1-3-4-1-2-1-54 1-54 1-2 3-4 3-1 4-1c7-2 8-4 2-6l-36 1c-2 0-2 1-3 4l-2 4-2 3-2 6-2 4-2 5-2 4-2 6-2 2-2 6-2 4-2 5-2 5-2 4c-1 2-2 2-2 5l-1 3a580 580 0 0 0-7 14l-2 6-3 6c0 2 0 2-3 1l-4-7-1-3-2-4-2-5-2-4-2-4-2-4-2-5-2-5-2-3-2-5a17 17 0 0 0-3-5l-1-3-1-4-3-6-2-3-2-4-2-5-2-4-2-5-2-4c-1-3-2-4-4-5l-1-1h-35m-54 1a86 86 0 0 1 12 2c7 1 9 2 11 4l4 1 7 4 4 3 2 2 3 5 1 3c3 4 3 21 0 27l-2 4c0 2-1 3-2 3l-2 3-2 2-2 1-4 3-4 1-5 3-4 1c-3 2-14 3-30 3h-7v1c-2 1-2 3-2 20 0 19 1 25 2 28 1 2 7 5 11 6 4 0 7 2 6 2-1 2-1 2-27 2H65l-1-1c-1-1 0-3 3-3l3-2 3-1 3-4 1-2 1-54-1-54-1-3-4-3-3-2-2-1c-3-1-4-2-3-3l1-1h55m90 0c2 2 3 3 4 7l1 3 3 5 2 4 2 4 1 4 3 5 1 3 3 6 2 4 2 4 2 4 1 5 3 4 1 4 2 5 2 4 2 4 2 5 2 3 3 6c0 3 1 4 4 5l1 1 1-1 1-3 2-5 2-3 2-6 2-4 3-5 1-5 2-4 2-4 2-5 2-4 2-5 3-5 1-3 2-6 2-3 2-5 2-5 2-4 2-6 2-3c2-5 0-5 21-5l21 1-6 3-3 1-3 2-3 3-1 2c-2 2-2 1-2 53a265 265 0 0 0 3 59l3 3a865 865 0 0 1 6 3c5 0 7 2 6 3l-28 1-28-1-1-1 1-1 6-1c4-1 8-4 10-8 2-3 2-4 2-52l-1-46-1-1h-1l-1 4-2 5-2 3-2 5-2 4-2 6-2 3-2 5-2 4-1 4c-2 1-2 3-3 5l-2 4-2 6-1 3c-2 1-2 2-3 5l-2 4-2 4-2 5-2 4-2 5-2 4-2 5-1 3-3 5-1 3c-1 3-4 3-5 0l-1-3-2-4-2-4-2-5-2-4-2-4-3-5-1-4-2-4-2-4-2-5-2-4-2-4-2-4-3-6-1-3-2-5-2-4-2-4-2-4-2-5-2-4c-1-3-1-4-3-5l-2-3-1-2h-1v80l1 4 3 12c1 2 8 6 11 6 4 0 5 2 3 3l-1 1h-22l-22-1c-2-1-1-2 2-3l7-2 2-1 4-4 1-2 1-3 1-2V82l-1-2c-1-3-3-5-5-6l-3-1-3-1c-6-1-9-3-5-4h37m-108 8c-4 0-4 0-4 31v26l1 1c2 1 5 2 16 1 8 0 10-1 13-2l4-2 3-2 2-2 2-2 1-2c2-1 2-2 3-6l1-5c2-5 2-9 0-14-2-8-2-8-4-10l-2-2-3-3-2-2-6-2-4-2c-3-1-17-2-21-1m12 0 8 2 4 1 6 3 3 2 3 2 2 2c2 3 3 6 4 13v8c-2 9-2 12-4 13l-2 2-2 3-2 2-2 1-5 2c-3 2-5 2-11 2h-16l-1-1V81l1-2 1-2 13-1"/></g></svg>